<svg xmlns="http://www.w3.org/2000/svg" viewBox="0 0 706.91 706.91"><defs><style>.cls-1{fill:#e8d19f;}.cls-2{fill:#ffce03;}.cls-3{fill:#3f2a1b;}.cls-4{fill:#c16b28;}.cls-5{fill:#7b3719;}.cls-6{fill:#db9327;}</style></defs><g id="Слой_2" data-name="Слой 2"><g id="Слой_1-2" data-name="Слой 1"><circle class="cls-1" cx="353.45" cy="353.45" r="353.45"/><path class="cls-2" d="M523.41,205.8H183.5a10.9,10.9,0,0,1-9.31-16.36L197.34,149l5.21-9.1c.44-.77.9-1.52,1.38-2.26A49.77,49.77,0,0,1,214,126.29a49.14,49.14,0,0,1,31.38-11.36H461.53a49.15,49.15,0,0,1,31.39,11.36A50,50,0,0,1,503,137.65c.48.74.94,1.49,1.38,2.26l5.21,9.1,23.15,40.43A10.9,10.9,0,0,1,523.41,205.8Z"/><path class="cls-3" d="M524.39,501.11a10.43,10.43,0,0,1,8.91,15.65L509.74,557.9l-5.21,9.1c-.45.77-.9,1.52-1.39,2.26a49.73,49.73,0,0,1-10.05,11.36A49.16,49.16,0,0,1,461.7,592H245.54a49.11,49.11,0,0,1-31.38-11.35,49.77,49.77,0,0,1-10.06-11.36c-.49-.74-.94-1.49-1.38-2.26l-5.22-9.1-23.95-41.83a10,10,0,0,1,8.52-15Z"/><path class="cls-4" d="M618.94,353.45a59.18,59.18,0,0,1-1.09,11.36,56.1,56.1,0,0,1-3.48,11.36c-.34.81-.7,1.61-1.09,2.4l-4.36,9a21.45,21.45,0,0,1-7,8.32,16.86,16.86,0,0,1-9.54,3H486.53a44.8,44.8,0,0,0,5.87-22.46c0-11.06-8.5-25.56-16.89-37.19a26.44,26.44,0,0,1-4.8-15.41,27.82,27.82,0,0,1,.36-4.45,26,26,0,0,1,.73-3.26,50,50,0,0,1,3.12-8.1H592.39c6.81,0,13.11,4.33,16.53,11.36l4.36,9c.39.79.75,1.59,1.09,2.4a56.1,56.1,0,0,1,3.48,11.36A59.16,59.16,0,0,1,618.94,353.45Z"/><path class="cls-4" d="M391.75,319.38a25.21,25.21,0,0,1-4.83,19.86c-9.11,11.63-18.36,26.13-18.36,37.19a42.08,42.08,0,0,0,6.38,22.46H116.84c-7.42,0-14.27-4.33-18-11.36l-4.74-9c-.42-.79-.81-1.59-1.18-2.4a52.27,52.27,0,0,1-3.78-11.36,54.32,54.32,0,0,1,0-22.71,52.27,52.27,0,0,1,3.78-11.36c.37-.81.76-1.61,1.18-2.4l4.74-9a21.94,21.94,0,0,1,7.6-8.32,19.5,19.5,0,0,1,10.38-3H387.57a49,49,0,0,1,3.39,8.1A24.57,24.57,0,0,1,391.75,319.38Z"/><path class="cls-5" d="M581.12,433l-13,22.72L561.64,467a22.55,22.55,0,0,1-19.56,11.4H164.78A22.46,22.46,0,0,1,145.3,467L125.79,433a7.57,7.57,0,0,1,6.47-11.36h259a64.4,64.4,0,0,0,13.85,10.32l0,0a49.41,49.41,0,0,0,23.59,6.64c.59,0,1.2.05,1.81.05h1.83c.61,0,1.22,0,1.81-.05,10.41-.44,18.23-3.37,23.93-6.86l.07,0a63.71,63.71,0,0,0,13.32-10.08H574.66A7.56,7.56,0,0,1,581.12,433Z"/><path class="cls-6" d="M576,285.31H488.38A45.18,45.18,0,0,0,449.29,308a46,46,0,0,0-3.67,8.1,23.37,23.37,0,0,0-.86,3.26,23.12,23.12,0,0,0-.42,4.45A23.77,23.77,0,0,0,450,339.24c9.88,11.63,19.89,26.13,19.89,37.19a39.5,39.5,0,0,1-18.82,33.81,38.56,38.56,0,0,1-40.29,0,39.54,39.54,0,0,1-18.83-33.81c0-11.06,10-25.56,19.89-37.19a23.78,23.78,0,0,0,5.23-19.86,22.06,22.06,0,0,0-.86-3.26,45.71,45.71,0,0,0-16.51-22.33,44.86,44.86,0,0,0-26.24-8.48H131A10.19,10.19,0,0,1,122.23,270l18.46-32.35a18,18,0,0,1,15.66-9.15H550.56a18,18,0,0,1,15.66,9.15L584.68,270A10.19,10.19,0,0,1,576,285.31Z"/></g></g></svg>