<svg xmlns="http://www.w3.org/2000/svg" viewBox="0 0 428.26 237.07"><defs><style>.cls-1{fill:#322215;}.cls-2{fill:#ffce03;}.cls-3{fill:#3f2a1b;}.cls-4{fill:#c16b28;}.cls-5{fill:#7b3719;}.cls-6{fill:#db9327;}</style></defs><g id="Слой_2" data-name="Слой 2"><g id="Слой_1-2" data-name="Слой 1"><path class="cls-1" d="M1.86,223.51l28.7-62h2.93l28.7,62H58.91l-27.55-60h1.33l-27.55,60Zm9.92-18.16,1.15-2.57H50.85L52,205.35Z" transform="translate(-1.86)"/><path class="cls-1" d="M75.75,223.51v-62h24.36q9.3,0,14.84,3.94t5.54,11.74q0,7.8-5.32,11.61t-13.82,3.8l1.51-1.41q10.27,0,15.54,4.07t5.28,12q0,7.8-5.41,12t-16.48,4.25Zm3-32.78H100.2q8.24,0,12.76-3.36t4.51-9.92q0-6.55-4.51-10t-12.76-3.41H78.76Zm0,30.21h23.3q9.12,0,13.86-3.36T120.66,207q0-7.18-4.74-10.46t-13.86-3.28H78.76Z" transform="translate(-1.86)"/><path class="cls-1" d="M145.29,220.77h38.89v2.74h-41.9v-62h40.66v2.74H145.29Zm-.53-30.12H179v2.74h-34.2Z" transform="translate(-1.86)"/><path class="cls-1" d="M221.48,223.51v-62h7.27l27.81,46.86h-3.89l27.46-46.86h7.27l.08,62H279l-.09-48.63h2L256.48,216H252.4l-24.63-41.1H230v48.63Z" transform="translate(-1.86)"/><path class="cls-1" d="M315.66,215.81H351.8v7.7h-45v-62h43.76v7.71h-34.9Zm-.8-27.56h31.89v7.53H314.86Z" transform="translate(-1.86)"/><path class="cls-1" d="M362.52,237.07l.09-21.26h67.51v21.26h-8.24V223.51h-51l-.09,13.56Zm49.7-17.72V169.21H385l-.44,13q-.27,6.56-.84,12.58a89.88,89.88,0,0,1-1.64,10.85,25.78,25.78,0,0,1-3,7.93,7.81,7.81,0,0,1-4.83,3.81l-9.56-1.59a6.54,6.54,0,0,0,5.71-2.35,18.4,18.4,0,0,0,3.54-7.35A67.42,67.42,0,0,0,375.9,195q.62-6.33.89-13.6l.62-19.93H421v57.85Z" transform="translate(-1.86)"/><path class="cls-1" d="M325.58,146.3H323a1.61,1.61,0,0,0-1.4.8l-1.28,2.22a1.6,1.6,0,0,0,0,1.61l1.28,2.21a1.62,1.62,0,0,0,1.4.81h2.55a1.62,1.62,0,0,0,1.4-.81l1.28-2.21a1.65,1.65,0,0,0,0-1.61L327,147.1A1.61,1.61,0,0,0,325.58,146.3Z" transform="translate(-1.86)"/><path class="cls-1" d="M344.78,146.3h-2.55a1.61,1.61,0,0,0-1.4.8l-1.28,2.22a1.65,1.65,0,0,0,0,1.61l1.28,2.21a1.62,1.62,0,0,0,1.4.81h2.55a1.62,1.62,0,0,0,1.4-.81l1.28-2.21a1.6,1.6,0,0,0,0-1.61l-1.28-2.22A1.61,1.61,0,0,0,344.78,146.3Z" transform="translate(-1.86)"/><path class="cls-2" d="M263.9,24.32h-91a2.92,2.92,0,0,1-2.5-4.38l6.2-10.82L178,6.68c.12-.2.24-.4.37-.6a13.32,13.32,0,0,1,2.7-3,13.09,13.09,0,0,1,8.39-3h57.85a13.21,13.21,0,0,1,11.09,6.08c.13.2.25.4.37.6l1.4,2.44,6.19,10.82A2.91,2.91,0,0,1,263.9,24.32Z" transform="translate(-1.86)"/><path class="cls-3" d="M264.16,103.35a2.79,2.79,0,0,1,2.39,4.18l-6.31,11L258.85,121c-.12.2-.24.4-.37.6a13.52,13.52,0,0,1-2.69,3,13.14,13.14,0,0,1-8.4,3H189.54a13.12,13.12,0,0,1-8.4-3,13.28,13.28,0,0,1-2.69-3c-.13-.2-.25-.4-.37-.6l-1.4-2.44-6.41-11.19a2.67,2.67,0,0,1,2.28-4Z" transform="translate(-1.86)"/><path class="cls-4" d="M289.47,63.83a15.51,15.51,0,0,1-.3,3,14.64,14.64,0,0,1-.93,3c-.09.22-.19.43-.29.64L286.78,73a5.64,5.64,0,0,1-1.87,2.23,4.51,4.51,0,0,1-2.55.81H254a12,12,0,0,0,1.57-6c0-3-2.27-6.84-4.52-10a7.09,7.09,0,0,1-1.28-4.13,8,8,0,0,1,.09-1.19c.05-.29.12-.58.2-.87a13.72,13.72,0,0,1,.83-2.17h31.44a5,5,0,0,1,4.42,3l1.17,2.4c.1.21.2.43.29.64a14.82,14.82,0,0,1,.93,3A15.51,15.51,0,0,1,289.47,63.83Z" transform="translate(-1.86)"/><path class="cls-4" d="M228.67,54.71a6.77,6.77,0,0,1-1.3,5.32c-2.44,3.11-4.91,7-4.91,10a11.23,11.23,0,0,0,1.71,6H155.1a5.48,5.48,0,0,1-4.81-3L149,70.55c-.11-.21-.22-.42-.32-.64a14.28,14.28,0,0,1-1-3,14.6,14.6,0,0,1,0-6.08,14.47,14.47,0,0,1,1-3c.1-.21.21-.43.32-.64l1.27-2.4a5.74,5.74,0,0,1,2-2.22,5.14,5.14,0,0,1,2.78-.82h72.45a13,13,0,0,1,.9,2.17A5.55,5.55,0,0,1,228.67,54.71Z" transform="translate(-1.86)"/><path class="cls-5" d="M279.34,85.11l-3.48,6.08-1.73,3a6,6,0,0,1-5.23,3.06h-101a6,6,0,0,1-5.22-3l-5.22-9.12a2,2,0,0,1,1.73-3h69.3a17.82,17.82,0,0,0,3.71,2.76h0a13.14,13.14,0,0,0,6.31,1.78l.49,0h.49l.48,0a13.22,13.22,0,0,0,6.41-1.83l0,0A17.05,17.05,0,0,0,250,82.07h27.61A2,2,0,0,1,279.34,85.11Z" transform="translate(-1.86)"/><path class="cls-6" d="M278,45.59H254.53a12.08,12.08,0,0,0-10.46,6.08,11.84,11.84,0,0,0-1,2.17,6.31,6.31,0,0,0-.34,2.06A6.37,6.37,0,0,0,244.25,60c2.65,3.11,5.33,7,5.33,10a10.68,10.68,0,0,1-1.85,6,10.51,10.51,0,0,1-3.19,3,10.36,10.36,0,0,1-14-3,10.6,10.6,0,0,1-1.85-6c0-3,2.68-6.84,5.32-10a6.36,6.36,0,0,0,1.4-5.32,5.59,5.59,0,0,0-.23-.87,12.51,12.51,0,0,0-1-2.17,12.33,12.33,0,0,0-3.44-3.81,12,12,0,0,0-7-2.27h-64.9a2.73,2.73,0,0,1-2.33-4.09l4.94-8.66a4.82,4.82,0,0,1,4.19-2.44h105.5a4.85,4.85,0,0,1,4.19,2.44l4.94,8.66A2.73,2.73,0,0,1,278,45.59Z" transform="translate(-1.86)"/></g></g></svg>