<svg width="35.000000" height="35.000000" viewBox="0 0 35 35" fill="none" xmlns="http://www.w3.org/2000/svg" xmlns:xlink="http://www.w3.org/1999/xlink">
	<desc>
			Created with Pixso.
	</desc>
	<defs>
		<clipPath id="clip156_607">
			<rect id="35px/agreement" width="35.000000" height="35.000000" fill="white" fill-opacity="0"/>
		</clipPath>
	</defs>
	<rect id="35px/agreement" width="35.000000" height="35.000000" fill="#FFFFFF" fill-opacity="0"/>
	<g clip-path="url(#clip156_607)">
		<path id="Vector" d="M29.1665 5.8335L29.1665 23.3335L11.6665 23.3335L11.6665 5.8335L29.1665 5.8335ZM29.1665 2.91675L11.6665 2.91675C10.0625 2.91675 8.75 4.22925 8.75 5.8335L8.75 23.3335C8.75 24.9375 10.0625 26.25 11.6665 26.25L29.1665 26.25C30.7705 26.25 32.083 24.9375 32.083 23.3335L32.083 5.8335C32.083 4.22925 30.7705 2.91675 29.1665 2.91675ZM18.1851 20.4167L13.125 15.3125L15.1665 13.2563L18.1851 16.2896L25.6665 8.75L27.708 10.8064L18.1851 20.4167ZM5.83301 8.75L2.9165 8.75L2.9165 29.1667C2.9165 30.771 4.229 32.0835 5.83301 32.0835L26.25 32.0835L26.25 29.1667L5.83301 29.1667L5.83301 8.75Z" fill="#4F8FF0" fill-opacity="1.000000" fill-rule="nonzero"/>
	</g>
</svg>
