<svg viewBox="0 0 47 47" xmlns="http://www.w3.org/2000/svg" xmlns:xlink="http://www.w3.org/1999/xlink" width="47.000000" height="47.000000" fill="none" customFrame="#000000">
	<g id="Group 5">
		<path id="Vector" d="M20.2407 25.7694C19.96 25.7184 13.3241 24.5651 9.7392 28.1668C6.80996 31.1097 7.04395 36.0997 7.2538 37.9733L6.08853 39.144C5.55207 39.683 5.55409 40.5548 6.09303 41.0913C6.63206 41.6276 7.50376 41.6258 8.04032 41.0868L9.20219 39.9195C9.69541 39.975 10.4022 40.0319 11.2301 40.0319C13.5473 40.0319 16.8092 39.5864 18.9664 37.419C22.5475 33.8212 21.401 27.1627 21.3504 26.8809C21.2488 26.3151 20.8063 25.8718 20.2407 25.7694ZM17.0147 35.4762C15.6819 36.8154 13.569 37.2044 11.8407 37.2687L15.9014 33.189C16.4379 32.65 16.4359 31.7782 15.8969 31.2418C15.3578 30.7053 14.4861 30.7074 13.9496 31.2462L9.90361 35.3112C9.98182 33.5017 10.4095 31.3972 11.6911 30.1096C13.588 28.2037 17.0662 28.2213 18.7645 28.3627C18.9276 30.3234 18.7947 33.6879 17.0147 35.4762Z" fill="rgb(16,29,35)" fill-rule="nonzero" />
		<path id="Vector" d="M45.623 20.0698L44.2301 20.0698L40.4958 1.11083C40.3687 0.46541 39.8028 0 39.1448 0L32.764 0C32.1061 0 31.5402 0.46541 31.4131 1.11083L27.6788 20.0698L24.9799 20.0698L24.9799 10.282C24.9799 9.05787 23.4927 8.44091 22.627 9.31059L13.867 18.1115L13.867 10.282C13.867 9.05806 12.3798 8.44081 11.5142 9.31059L0.405742 20.4709C0.140725 20.7346 0 21.0969 0 21.4468L0 45.623C0 46.3835 0.616508 47 1.37695 47L45.623 47C46.3835 47 47 46.3835 47 45.623L47 21.4468C47 20.6863 46.3835 20.0698 45.623 20.0698ZM33.8963 2.75391L38.0127 2.75391L41.4233 20.0698L30.4857 20.0698L33.8963 2.75391ZM22.226 20.0698L15.8034 20.0698L22.226 13.6172L22.226 20.0698ZM11.1131 20.0698L4.69055 20.0698L11.1131 13.6172L11.1131 20.0698ZM33.172 44.2461L33.172 30.0496L38.737 30.0496L38.737 44.2461L33.172 44.2461ZM44.2461 44.2461L41.4909 44.2461L41.4909 28.6727C41.4909 27.9122 40.8744 27.2957 40.1139 27.2957L31.795 27.2957C31.0346 27.2957 30.4181 27.9122 30.4181 28.6727L30.4181 44.2461L2.75391 44.2461L2.75391 22.8237L44.2461 22.8237L44.2461 44.2461Z" fill="rgb(16,29,35)" fill-rule="nonzero" />
	</g>
</svg>
