<svg viewBox="0 0 37.3359 44.4329" xmlns="http://www.w3.org/2000/svg" xmlns:xlink="http://www.w3.org/1999/xlink" width="37.335938" height="44.432861" fill="none" customFrame="#000000">
	<g id="15+">
		<path id="Vector" d="M37.2876 11.4406C37.2648 10.241 37.243 9.10771 37.243 8.01136C37.243 7.15244 36.5469 6.4561 35.6878 6.4561C29.0365 6.4561 23.9723 4.54459 19.7512 0.440371C19.1473 -0.146894 18.1864 -0.146687 17.5827 0.440371C13.362 4.54459 8.29867 6.4561 1.64778 6.4561C0.788862 6.4561 0.0925223 7.15244 0.0925223 8.01136C0.0925223 9.10792 0.070956 10.2416 0.0479382 11.4414C-0.165236 22.6053 -0.457209 37.8947 18.1575 44.3469C18.3226 44.4041 18.4947 44.4328 18.6668 44.4328C18.839 44.4328 19.0113 44.4041 19.1761 44.3469C37.7923 37.8945 37.5008 22.6046 37.2876 11.4406ZM18.667 41.2271C2.70245 35.4276 2.94382 22.7232 3.15804 11.5007C3.17089 10.8272 3.18333 10.1744 3.19204 9.53447C9.42136 9.27153 14.4027 7.38386 18.667 3.66908C22.9318 7.38386 27.914 9.27174 34.1437 9.53447C34.1524 10.1742 34.1649 10.8266 34.1777 11.4997C34.3917 22.7226 34.6329 35.4274 18.667 41.2271Z" fill="rgb(16,29,35)" fill-rule="nonzero" />
		<path id="Vector" d="M24.0228 16.8138L16.5163 24.3199L13.3131 21.1167C12.7057 20.5095 11.7209 20.5095 11.1137 21.1167C10.5064 21.7243 10.5064 22.7089 11.1137 23.3162L15.4166 27.6191C15.7202 27.9227 16.1183 28.0745 16.5163 28.0745C16.9142 28.0745 17.3124 27.9227 17.616 27.6191L26.2219 19.0134C26.8295 18.406 26.8295 17.4212 26.2221 16.814C25.6149 16.2067 24.6302 16.2064 24.0228 16.8138Z" fill="rgb(16,29,35)" fill-rule="nonzero" />
	</g>
</svg>
