<?xml version="1.0" encoding="UTF-8" standalone="no" ?>
<!DOCTYPE svg PUBLIC "-//W3C//DTD SVG 1.1//EN" "http://www.w3.org/Graphics/SVG/1.1/DTD/svg11.dtd">
<svg xmlns="http://www.w3.org/2000/svg" xmlns:xlink="http://www.w3.org/1999/xlink" version="1.1" width="500" height="500" viewBox="0 0 500 500" xml:space="preserve">
<desc>Created with Fabric.js 3.6.3</desc>
<defs>
</defs>
<g transform="matrix(1 0 0 1 256.3737214569713 379.7153596065158)" style=""  ><path fill="#000000" opacity="1" d="M-176.62 12.82C-175.40 12.82-174.62 12.00-174.38 11.39L-168.91-2.08L-168.50-2.08L-168.50 11.39C-168.50 12.20-167.89 12.82-167.08 12.82L-160.96 12.82C-160.14 12.82-159.53 12.20-159.53 11.39L-159.53-14.32C-159.53-15.13-160.14-15.74-160.96-15.74L-169.52-15.74C-170.75-15.74-171.52-14.93-171.77-14.32L-178.91 3.02L-179.32 3.02L-186.46-14.32C-186.70-14.93-187.48-15.74-188.70-15.74L-197.27-15.74C-198.08-15.74-198.70-15.13-198.70-14.32L-198.70 11.39C-198.70 12.20-198.08 12.82-197.27 12.82L-191.15 12.82C-190.33 12.82-189.72 12.20-189.72 11.39L-189.72-2.08L-189.31-2.08L-183.80 11.39C-183.56 12.00-182.78 12.82-181.56 12.82Z"/><path fill="#000000" opacity="1" d="M-131.33 12.82C-130.11 12.82-129.34 12.00-129.09 11.39L-123.62-2.08L-123.22-2.08L-123.22 11.39C-123.22 12.20-122.60 12.82-121.79 12.82L-115.67 12.82C-114.85 12.82-114.24 12.20-114.24 11.39L-114.24-14.32C-114.24-15.13-114.85-15.74-115.67-15.74L-124.24-15.74C-125.46-15.74-126.23-14.93-126.48-14.32L-133.62 3.02L-134.03 3.02L-141.17-14.32C-141.41-14.93-142.19-15.74-143.41-15.74L-151.98-15.74C-152.80-15.74-153.41-15.13-153.41-14.32L-153.41 11.39C-153.41 12.20-152.80 12.82-151.98 12.82L-145.86 12.82C-145.04 12.82-144.43 12.20-144.43 11.39L-144.43-2.08L-144.02-2.08L-138.52 11.39C-138.27 12.00-137.50 12.82-136.27 12.82Z"/><path fill="#000000" opacity="1" d=""/><path fill="#000000" opacity="1" d="M-65.69-14.32C-65.69-15.13-66.30-15.74-67.12-15.74L-94.04-15.74C-94.86-15.74-95.47-15.13-95.47-14.32L-95.47 11.39C-95.47 12.20-94.86 12.82-94.04 12.82L-87.92 12.82C-87.11 12.82-86.50 12.20-86.50 11.39L-86.50-8.81L-74.66-8.81L-74.66 11.39C-74.66 12.20-74.05 12.82-73.24 12.82L-67.12 12.82C-66.30 12.82-65.69 12.20-65.69 11.39Z"/><path fill="#000000" opacity="1" d="M-29.78-5.34C-29.78-11.26-34.27-15.74-43.86-15.74L-58.14-15.74C-58.96-15.74-59.57-15.13-59.57-14.32L-59.57 11.39C-59.57 12.20-58.96 12.82-58.14 12.82L-52.02 12.82C-51.20 12.82-50.59 12.20-50.59 11.39L-50.59 5.06L-43.86 5.06C-34.27 5.06-29.78 0.58-29.78-5.34ZM-50.59-1.46L-50.59-9.22L-43.86-9.22C-40.80-9.22-39.17-7.58-39.17-5.34C-39.17-3.10-40.80-1.46-43.86-1.46Z"/><path fill="#000000" opacity="1" d="M-10.20 6.90C-14.69 6.90-17.54 4.04-17.54-1.46C-17.54-6.97-14.69-9.83-10.20-9.83C-5.71-9.83-2.86-6.97-2.86-1.46C-2.86 4.04-5.71 6.90-10.20 6.90ZM-10.20-16.56C-21.01-16.56-26.93-10.64-26.93-1.46C-26.93 7.72-21.01 13.63-10.20 13.63C0.61 13.63 6.53 7.72 6.53-1.46C6.53-10.64 0.61-16.56-10.20-16.56Z"/><path fill="#000000" opacity="1" d=""/><path fill="#000000" opacity="1" d="M49.78-14.32C49.78-15.13 49.16-15.74 48.35-15.74L25.50-15.74C24.68-15.74 24.07-15.13 24.07-14.32L24.07 11.39C24.07 12.20 24.68 12.82 25.50 12.82L31.62 12.82C32.44 12.82 33.05 12.20 33.05 11.39L33.05-8.81L48.35-8.81C49.16-8.81 49.78-9.42 49.78-10.24Z"/><path fill="#000000" opacity="1" d="M83.03-5.34C83.03-11.26 78.54-15.74 68.95-15.74L54.67-15.74C53.86-15.74 53.24-15.13 53.24-14.32L53.24 11.39C53.24 12.20 53.86 12.82 54.67 12.82L60.79 12.82C61.61 12.82 62.22 12.20 62.22 11.39L62.22 5.06L68.95 5.06C78.54 5.06 83.03 0.58 83.03-5.34ZM62.22-1.46L62.22-9.22L68.95-9.22C72.01-9.22 73.64-7.58 73.64-5.34C73.64-3.10 72.01-1.46 68.95-1.46Z"/><path fill="#000000" opacity="1" d="M103.55-3.50L100.29-3.50C98.65-3.50 97.63-4.52 97.02-5.95L93.55-14.32C93.23-15.13 92.53-15.74 91.51-15.74L85.39-15.74C84.37-15.74 83.84-15.13 84.17-14.32L87.64-5.95C90.09-0.04 93.35 3.23 100.08 3.23L101.10 3.23L100.90 3.84C100.57 4.86 99.47 5.88 97.84 5.88L97.43 5.88C96.61 5.88 95.39 5.47 94.57 5.47L92.74 5.47C91.92 5.47 91.31 6.08 91.31 6.90L91.31 11.39C91.31 12.20 91.92 12.82 92.74 12.82L97.84 12.82C104.57 12.82 108.04 9.35 110.08 3.84L116.81-14.32C117.10-15.13 116.61-15.74 115.59-15.74L109.67-15.74C108.65-15.74 107.92-15.13 107.63-14.32Z"/><path fill="#000000" opacity="1" d="M150.14-14.32C150.14-15.13 149.53-15.74 148.72-15.74L121.79-15.74C120.97-15.74 120.36-15.13 120.36-14.32L120.36 11.39C120.36 12.20 120.97 12.82 121.79 12.82L127.91 12.82C128.72 12.82 129.34 12.20 129.34 11.39L129.34-8.81L141.17-8.81L141.17 11.39C141.17 12.20 141.78 12.82 142.60 12.82L148.72 12.82C149.53 12.82 150.14 12.20 150.14 11.39Z"/><path fill="#000000" opacity="1" d="M186.05-14.32C186.05-15.13 185.44-15.74 184.62-15.74L157.69-15.74C156.88-15.74 156.26-15.13 156.26-14.32L156.26 11.39C156.26 12.20 156.88 12.82 157.69 12.82L163.81 12.82C164.63 12.82 165.24 12.20 165.24 11.39L165.24-8.81L177.07-8.81L177.07 11.39C177.07 12.20 177.68 12.82 178.50 12.82L184.62 12.82C185.44 12.82 186.05 12.20 186.05 11.39Z"/><path fill="#000000" opacity="1" d=""/></g><g transform="matrix(3.734375 0 0 3.734375 250.32999999999998 223.42156589585784)"  >
<g style=""   >
		<g transform="matrix(1 0 0 1 -14.5 -14.5)"  >
<path style="stroke: none; stroke-width: 1; stroke-dasharray: none; stroke-linecap: butt; stroke-dashoffset: 0; stroke-linejoin: miter; stroke-miterlimit: 4; fill: rgb(0,0,0); fill-rule: nonzero; opacity: 1;"  transform=" translate(-17, -17)" d="M 17 24 c 3.86 0 7 -3.14 7 -7 s -3.14 -7 -7 -7 s -7 3.14 -7 7 S 13.14 24 17 24 z M 17 12 c 2.757 0 5 2.243 5 5 s -2.243 5 -5 5 s -5 -2.243 -5 -5 S 14.243 12 17 12 z" stroke-linecap="round" />
</g>
		<g transform="matrix(1 0 0 1 11.5 11.5)"  >
<path style="stroke: none; stroke-width: 1; stroke-dasharray: none; stroke-linecap: butt; stroke-dashoffset: 0; stroke-linejoin: miter; stroke-miterlimit: 4; fill: rgb(0,0,0); fill-rule: nonzero; opacity: 1;"  transform=" translate(-43, -43)" d="M 43 34 c -4.962 0 -9 4.038 -9 9 s 4.038 9 9 9 s 9 -4.038 9 -9 S 47.962 34 43 34 z M 43 50 c -3.86 0 -7 -3.14 -7 -7 s 3.14 -7 7 -7 s 7 3.14 7 7 S 46.86 50 43 50 z" stroke-linecap="round" />
</g>
		<g transform="matrix(1 0 0 1 19.5 -18.5)"  >
<path style="stroke: none; stroke-width: 1; stroke-dasharray: none; stroke-linecap: butt; stroke-dashoffset: 0; stroke-linejoin: miter; stroke-miterlimit: 4; fill: rgb(0,0,0); fill-rule: nonzero; opacity: 1;"  transform=" translate(-51, -13)" d="M 51 10 c -1.654 0 -3 1.346 -3 3 s 1.346 3 3 3 s 3 -1.346 3 -3 S 52.654 10 51 10 z M 51 14 c -0.551 0 -1 -0.449 -1 -1 s 0.449 -1 1 -1 s 1 0.449 1 1 S 51.551 14 51 14 z" stroke-linecap="round" />
</g>
		<g transform="matrix(1 0 0 1 0.5 0.5)"  >
<path style="stroke: none; stroke-width: 1; stroke-dasharray: none; stroke-linecap: butt; stroke-dashoffset: 0; stroke-linejoin: miter; stroke-miterlimit: 4; fill: rgb(0,0,0); fill-rule: nonzero; opacity: 1;"  transform=" translate(-32, -32)" d="M 51 1 H 17.567 C 8.432 1 1 8.432 1 17.567 c 0 3.728 1.278 7.389 3.609 10.322 l 22.912 27.817 C 31.338 60.342 36.972 63 42.977 63 C 54.018 63 63 54.018 63 42.977 V 13 C 63 6.383 57.617 1 51 1 z M 60.949 12 h -2.019 c -0.183 -1.458 -0.759 -2.792 -1.619 -3.898 l 1.427 -1.427 C 59.952 8.158 60.749 9.992 60.949 12 z M 51 19 c -3.309 0 -6 -2.691 -6 -6 s 2.691 -6 6 -6 s 6 2.691 6 6 S 54.309 19 51 19 z M 55.898 6.688 c -1.106 -0.86 -2.44 -1.436 -3.898 -1.619 V 3.051 c 2.008 0.2 3.842 0.998 5.324 2.211 L 55.898 6.688 z M 50 5.069 c -1.458 0.183 -2.792 0.759 -3.898 1.619 l -1.467 -1.467 l -1.414 1.414 l 1.467 1.467 c -0.86 1.106 -1.436 2.44 -1.619 3.898 H 41 v 2 h 2.069 c 0.183 1.458 0.759 2.792 1.619 3.898 l -1.467 1.467 l 1.414 1.414 l 1.467 -1.467 c 1.106 0.86 2.44 1.436 3.898 1.619 V 23 h 2 v -2.069 c 1.458 -0.183 2.792 -0.759 3.898 -1.619 l 1.467 1.467 l 1.414 -1.414 l -1.467 -1.467 c 0.86 -1.106 1.436 -2.44 1.619 -3.898 H 61 v 24 h -1.767 c -0.312 -1.015 -0.72 -2 -1.22 -2.942 l 2.665 -2.665 l -7.071 -7.071 l -2.665 2.665 c -0.942 -0.5 -1.927 -0.908 -2.942 -1.22 V 23 H 38 v 3.767 c -1.015 0.312 -2 0.72 -2.942 1.22 l -2.665 -2.665 l -7.071 7.071 l 2.665 2.665 c -0.5 0.942 -0.908 1.927 -1.22 2.942 H 23 v 9.072 L 9.263 30.394 l 1.827 -1.827 c 0.614 0.313 1.252 0.578 1.91 0.79 V 33 h 8 v -3.643 c 0.658 -0.212 1.296 -0.477 1.91 -0.79 l 2.575 2.575 l 5.657 -5.657 l -2.575 -2.575 c 0.313 -0.614 0.578 -1.252 0.79 -1.91 H 33 v -8 h -3.643 c -0.212 -0.658 -0.477 -1.296 -0.79 -1.91 l 2.575 -2.575 L 25.627 3 H 50 V 5.069 z M 27 51.928 L 23.765 48 h 3.003 c 0.312 1.015 0.72 2 1.22 2.942 L 27 51.928 z M 21 3 h 4.343 L 22.91 5.433 C 22.296 5.12 21.658 4.855 21 4.643 V 3 z M 13 3.744 v 0.899 c -0.658 0.212 -1.296 0.477 -1.91 0.79 l -0.592 -0.592 C 11.289 4.399 12.127 4.033 13 3.744 z M 5.433 11.09 C 5.12 11.704 4.855 12.342 4.643 13 H 3.744 c 0.289 -0.873 0.655 -1.711 1.097 -2.503 L 5.433 11.09 z M 4.458 23.886 C 4.013 22.962 3.663 21.996 3.421 21 h 1.222 c 0.212 0.658 0.477 1.296 0.79 1.91 L 4.458 23.886 z M 5.48 25.691 l 2.446 -2.446 l -0.394 -0.667 c -0.52 -0.88 -0.913 -1.831 -1.17 -2.828 L 6.168 19 h -3.09 C 3.031 18.524 3 18.047 3 17.567 C 3 16.69 3.091 15.835 3.241 15 h 2.928 l 0.193 -0.75 c 0.257 -0.997 0.651 -1.948 1.17 -2.828 l 0.394 -0.667 l -1.961 -1.96 c 0.81 -1.068 1.76 -2.019 2.828 -2.828 l 1.96 1.961 l 0.667 -0.394 c 0.88 -0.52 1.831 -0.913 2.828 -1.17 L 15 6.168 V 3.241 C 15.835 3.091 16.69 3 17.567 3 H 19 v 3.168 l 0.75 0.193 c 0.997 0.257 1.948 0.651 2.828 1.17 l 0.667 0.394 l 2.24 -2.24 l 2.829 2.829 l -2.24 2.24 l 0.394 0.667 c 0.52 0.88 0.913 1.831 1.17 2.828 L 27.832 15 H 31 v 4 h -3.168 l -0.193 0.75 c -0.257 0.997 -0.651 1.948 -1.17 2.828 l -0.394 0.667 l 2.24 2.24 l -2.829 2.829 l -2.24 -2.24 l -0.667 0.394 c -0.88 0.52 -1.831 0.913 -2.828 1.17 L 19 27.832 V 31 h -4 v -3.168 l -0.75 -0.193 c -0.997 -0.257 -1.948 -0.651 -2.828 -1.17 l -0.667 -0.394 l -2.769 2.769 l -1.822 -2.212 C 5.922 26.327 5.695 26.013 5.48 25.691 z M 38 60.276 c -1.285 -0.368 -2.519 -0.877 -3.686 -1.518 l 0.745 -0.745 c 0.942 0.5 1.927 0.908 2.942 1.22 V 60.276 z M 48 60.273 v -1.041 c 1.015 -0.312 2 -0.72 2.942 -1.22 l 0.737 0.737 C 50.524 59.389 49.291 59.898 48 60.273 z M 53.406 57.649 l -2.132 -2.132 l -0.667 0.394 c -1.209 0.713 -2.506 1.251 -3.855 1.598 L 46 57.701 v 3.025 C 45.015 60.893 44.009 61 42.977 61 c -1.009 0 -1.999 -0.11 -2.977 -0.273 v -3.026 l -0.751 -0.193 c -1.349 -0.347 -2.646 -0.885 -3.855 -1.598 l -0.667 -0.394 l -2.152 2.152 c -1.289 -0.914 -2.48 -1.983 -3.51 -3.234 l -0.787 -0.956 l 2.206 -2.206 l -0.394 -0.667 c -0.713 -1.209 -1.251 -2.506 -1.598 -3.855 L 28.299 46 H 25 v -6 h 3.299 l 0.193 -0.751 c 0.347 -1.349 0.885 -2.646 1.598 -3.855 l 0.394 -0.667 l -2.333 -2.333 l 4.243 -4.243 l 2.333 2.333 l 0.667 -0.394 c 1.209 -0.713 2.506 -1.251 3.855 -1.598 L 40 28.299 V 25 h 6 v 3.299 l 0.751 0.193 c 1.349 0.347 2.646 0.885 3.855 1.598 l 0.667 0.394 l 2.333 -2.333 l 4.243 4.243 l -2.333 2.333 l 0.394 0.667 c 0.713 1.209 1.251 2.506 1.598 3.855 L 57.701 40 H 61 v 2.977 c 0 1.032 -0.107 2.038 -0.274 3.023 h -3.025 l -0.193 0.751 c -0.347 1.349 -0.885 2.646 -1.598 3.855 l -0.394 0.667 l 2.132 2.132 C 56.48 55.046 55.046 56.48 53.406 57.649 z M 58.013 50.942 c 0.5 -0.942 0.908 -1.927 1.22 -2.942 h 1.041 c -0.376 1.291 -0.884 2.524 -1.524 3.678 L 58.013 50.942 z" stroke-linecap="round" />
</g>
		<g transform="matrix(1 0 0 1 11.5 11.5)"  >
<rect style="stroke: none; stroke-width: 1; stroke-dasharray: none; stroke-linecap: butt; stroke-dashoffset: 0; stroke-linejoin: miter; stroke-miterlimit: 4; fill: rgb(0,0,0); fill-rule: nonzero; opacity: 1;"  x="-1" y="-1" rx="0" ry="0" width="2" height="2" />
</g>
		<g transform="matrix(1 0 0 1 15.5 11.5)"  >
<rect style="stroke: none; stroke-width: 1; stroke-dasharray: none; stroke-linecap: butt; stroke-dashoffset: 0; stroke-linejoin: miter; stroke-miterlimit: 4; fill: rgb(0,0,0); fill-rule: nonzero; opacity: 1;"  x="-1" y="-1" rx="0" ry="0" width="2" height="2" />
</g>
		<g transform="matrix(1 0 0 1 11.5 7.5)"  >
<rect style="stroke: none; stroke-width: 1; stroke-dasharray: none; stroke-linecap: butt; stroke-dashoffset: 0; stroke-linejoin: miter; stroke-miterlimit: 4; fill: rgb(0,0,0); fill-rule: nonzero; opacity: 1;"  x="-1" y="-1" rx="0" ry="0" width="2" height="2" />
</g>
		<g transform="matrix(1 0 0 1 7.5 11.5)"  >
<rect style="stroke: none; stroke-width: 1; stroke-dasharray: none; stroke-linecap: butt; stroke-dashoffset: 0; stroke-linejoin: miter; stroke-miterlimit: 4; fill: rgb(0,0,0); fill-rule: nonzero; opacity: 1;"  x="-1" y="-1" rx="0" ry="0" width="2" height="2" />
</g>
		<g transform="matrix(1 0 0 1 11.5 15.5)"  >
<rect style="stroke: none; stroke-width: 1; stroke-dasharray: none; stroke-linecap: butt; stroke-dashoffset: 0; stroke-linejoin: miter; stroke-miterlimit: 4; fill: rgb(0,0,0); fill-rule: nonzero; opacity: 1;"  x="-1" y="-1" rx="0" ry="0" width="2" height="2" />
</g>
</g>
</g>
</svg>