<svg id="Слой_1" data-name="Слой 1" xmlns="http://www.w3.org/2000/svg" viewBox="0 0 500 500"><defs><style>.cls-1{fill:#c9e265;}</style></defs><rect class="cls-1" width="500" height="500"/><path d="M151.28,197.35a46.07,46.07,0,1,0-46.06-46.07A46.11,46.11,0,0,0,151.28,197.35Zm0-79a32.91,32.91,0,1,1-32.9,32.9A32.94,32.94,0,0,1,151.28,118.38Z"/><path d="M322.39,263.16a59.23,59.23,0,1,0,59.23,59.23A59.31,59.31,0,0,0,322.39,263.16Zm0,105.3a46.07,46.07,0,1,1,46.07-46.07A46.13,46.13,0,0,1,322.39,368.46Z"/><path d="M375,105.22A19.74,19.74,0,1,0,394.78,125,19.76,19.76,0,0,0,375,105.22Zm0,26.32a6.58,6.58,0,1,1,6.58-6.58A6.59,6.59,0,0,1,375,131.54Z"/><path d="M375,46H155A109,109,0,0,0,69.74,223L220.52,406a131.32,131.32,0,0,0,101.72,48C394.9,454,454,394.9,454,322.24V125A79.05,79.05,0,0,0,375,46Zm65.48,72.39H427.23a52.33,52.33,0,0,0-10.66-25.65l9.4-9.4A65.59,65.59,0,0,1,440.52,118.38ZM375,164.45A39.49,39.49,0,1,1,414.53,125,39.53,39.53,0,0,1,375,164.45Zm32.23-81a52.33,52.33,0,0,0-25.65-10.66V59.48a65.53,65.53,0,0,1,35,14.55ZM368.46,72.76a52.37,52.37,0,0,0-25.65,10.66l-9.66-9.65-9.3,9.3,9.65,9.66a52.23,52.23,0,0,0-10.65,25.65H309.23v13.16h13.62a52.27,52.27,0,0,0,10.65,25.65l-9.65,9.66,9.3,9.3,9.66-9.65a52.27,52.27,0,0,0,25.65,10.65v13.62h13.16V177.15a52.23,52.23,0,0,0,25.65-10.65l9.66,9.65,9.3-9.3-9.65-9.66a52.37,52.37,0,0,0,10.66-25.65h13.61v158H429.22a110.5,110.5,0,0,0-8-19.37l17.54-17.53L392.2,206.05l-17.54,17.54a110.41,110.41,0,0,0-19.36-8V190.77H289.49v24.79a110.5,110.5,0,0,0-19.37,8l-17.53-17.54-46.54,46.54,17.54,17.53a110.5,110.5,0,0,0-8,19.37H190.77v59.7l-90.4-109.76,12-12a85.72,85.72,0,0,0,12.57,5.2v24h52.65v-24a85.72,85.72,0,0,0,12.57-5.2l16.94,16.94,37.23-37.23-16.94-16.94a85.72,85.72,0,0,0,5.2-12.57h24V125h-24a85.72,85.72,0,0,0-5.2-12.57l16.94-17L208.06,59.15h160.4ZM217.09,381.15,195.8,355.3h19.77a110.41,110.41,0,0,0,8,19.36Zm-39.48-322h28.58l-16,16A85.72,85.72,0,0,0,177.61,70ZM125,64V70a85.72,85.72,0,0,0-12.57,5.2l-3.9-3.9A96.16,96.16,0,0,1,125,64Zm-49.8,48.35A85.72,85.72,0,0,0,70,125H64a96.16,96.16,0,0,1,7.22-16.47ZM68.74,196.6a96.47,96.47,0,0,1-6.82-19h8a85.72,85.72,0,0,0,5.2,12.57Zm6.73,11.88,16.1-16.1L89,188a72.13,72.13,0,0,1-7.7-18.61L80,164.45H59.66c-.31-3.14-.51-6.28-.51-9.43a96,96,0,0,1,1.58-16.9H80l1.27-4.93A72.55,72.55,0,0,1,89,114.57l2.6-4.39L78.66,97.29A96.54,96.54,0,0,1,97.27,78.67l12.9,12.91L114.56,89a71.78,71.78,0,0,1,18.61-7.7l5-1.29V60.73A96,96,0,0,1,155,59.15h9.43V80l4.93,1.27A71.78,71.78,0,0,1,188,89l4.39,2.59,14.74-14.74,18.62,18.62L211,110.18l2.59,4.39a71.44,71.44,0,0,1,7.7,18.61l1.28,4.94h20.85v26.33H222.57l-1.27,4.93A71.78,71.78,0,0,1,213.6,188L211,192.38l14.74,14.74-18.62,18.62L192.39,211,188,213.59a71.44,71.44,0,0,1-18.61,7.7l-4.94,1.28v20.85H138.12V222.57l-4.93-1.27a71.85,71.85,0,0,1-18.62-7.7L110.18,211,92,229.23,80,214.67C78.38,212.67,76.88,210.6,75.47,208.48Zm214,227.61a117.9,117.9,0,0,1-24.26-10l4.9-4.91a110.41,110.41,0,0,0,19.36,8v6.87Zm65.81,0v-6.85a111.18,111.18,0,0,0,19.36-8l4.85,4.85A117.86,117.86,0,0,1,355.3,436.07Zm35.57-17.27-14-14-4.39,2.59a98.2,98.2,0,0,1-25.37,10.52l-4.94,1.26v19.91a109.19,109.19,0,0,1-39.49,0V419.14l-4.94-1.27a97.5,97.5,0,0,1-25.37-10.52L268,404.76l-14.17,14.16a118.6,118.6,0,0,1-23.1-21.28l-5.17-6.29L240,376.83l-2.59-4.39a98.34,98.34,0,0,1-10.52-25.37l-1.27-4.93H203.93V302.65h21.71l1.27-4.94a98.2,98.2,0,0,1,10.52-25.37L240,268l-15.35-15.36,27.92-27.92L268,240l4.39-2.59a98.2,98.2,0,0,1,25.37-10.52l4.94-1.27V203.93h39.49v21.71l4.94,1.27a98.34,98.34,0,0,1,25.37,10.52l4.39,2.59,15.35-15.35,27.92,27.92L404.76,268l2.59,4.39a97.5,97.5,0,0,1,10.52,25.37l1.27,4.94h21.71v19.59a118.76,118.76,0,0,1-1.8,19.9H419.14l-1.27,4.94a97.65,97.65,0,0,1-10.52,25.37l-2.59,4.39,14,14A119.21,119.21,0,0,1,390.87,418.8Zm30.32-44.14a110.41,110.41,0,0,0,8-19.36h6.85a117,117,0,0,1-10,24.2Z"/><rect x="315.81" y="315.81" width="13.16" height="13.16"/><rect x="342.14" y="315.81" width="13.16" height="13.16"/><rect x="315.81" y="289.49" width="13.16" height="13.16"/><rect x="289.49" y="315.81" width="13.16" height="13.16"/><rect x="315.81" y="342.14" width="13.16" height="13.16"/></svg>